<?xml version="1.0" encoding="UTF-8"?>
<svg width="200px" height="200px" viewBox="0 0 200 200" version="1.1" xmlns="http://www.w3.org/2000/svg" xmlns:xlink="http://www.w3.org/1999/xlink">
    <!-- Generator: Sketch 43.2 (39069) - http://www.bohemiancoding.com/sketch -->
    <title>logo</title>
    <desc>Created with Sketch.</desc>
    <defs>
        <rect id="path-1" x="0" y="0" width="200" height="200" rx="100"></rect>
        <rect id="path-3" x="0" y="0" width="200" height="200" rx="100"></rect>
    </defs>
    <g id="Page-1" stroke="none" stroke-width="1" fill="none" fill-rule="evenodd">
        <mask id="mask-2" fill="white">
            <use xlink:href="#path-1"></use>
        </mask>
        <g id="BG">
            <use fill="#FFFFFF" fill-rule="evenodd" xlink:href="#path-1"></use>
            <rect stroke="#000000" stroke-width="2" x="1" y="1" width="198" height="198" rx="99"></rect>
        </g>
        <path d="M160.672018,229.014956 C232.868366,141.604125 160.672018,229.014956 232.868366,141.604125 C305.064714,54.193293 232.868366,10.14374 78.3689058,-40.3900811 C-76.1305543,-90.9239021 -58.3803233,18.6842274 -58.3803233,141.604125 C-58.3803233,264.524022 88.47567,316.425788 160.672018,229.014956 Z" id="20" stroke="#001F3F" stroke-width="2" mask="url(#mask-2)"></path>
        <path d="M157.374892,223.795505 C226.187036,140.482056 157.374892,223.795505 226.187036,140.482056 C294.99918,57.1686074 226.187036,15.1838772 78.9297383,-32.981171 C-68.3275596,-81.1462192 -51.4093706,23.3240292 -51.4093706,140.482056 C-51.4093706,257.640084 88.562748,307.108954 157.374892,223.795505 Z" id="19" stroke="#001F3F" stroke-width="2" mask="url(#mask-2)"></path>
        <path d="M154.077766,217.576054 C219.505707,138.359988 154.077766,217.576054 219.505707,138.359988 C284.933647,59.1439218 219.505707,19.2240144 79.4905709,-26.572261 C-60.5245649,-72.3685363 -44.438418,26.9638311 -44.438418,138.359988 C-44.438418,249.756145 88.649826,296.792121 154.077766,217.576054 Z" id="18" stroke="#001F3F" stroke-width="2" mask="url(#mask-2)"></path>
        <path d="M148.78064,212.356603 C210.824377,137.23792 148.78064,212.356603 210.824377,137.23792 C272.868114,62.1192362 210.824377,24.2641516 78.0514034,-19.1633509 C-54.7215701,-62.5908534 -39.4674653,31.6036329 -39.4674653,137.23792 C-39.4674653,242.872207 86.7369039,287.475287 148.78064,212.356603 Z" id="17" stroke="#001F3F" stroke-width="2" mask="url(#mask-2)"></path>
        <path d="M145.483515,206.137152 C204.143047,135.115851 145.483515,206.137152 204.143047,135.115851 C262.80258,64.0945506 204.143047,28.3042888 78.612236,-12.7544409 C-46.9185754,-53.8131705 -32.4965127,35.2434347 -32.4965127,135.115851 C-32.4965127,234.988268 86.8239819,277.158453 145.483515,206.137152 Z" id="16" stroke="#001F3F" stroke-width="2" mask="url(#mask-2)"></path>
        <path d="M142.186389,199.917701 C197.461718,132.993783 142.186389,199.917701 197.461718,132.993783 C252.737047,66.069865 197.461718,32.344426 79.1730685,-6.34553081 C-39.1155807,-45.0354876 -25.52556,38.8832366 -25.52556,132.993783 C-25.52556,227.104329 86.9110599,266.841619 142.186389,199.917701 Z" id="15" stroke="#001F3F" stroke-width="2" mask="url(#mask-2)"></path>
        <path d="M139.889263,193.69825 C191.780388,130.871715 139.889263,193.69825 191.780388,130.871715 C243.671513,68.0451794 191.780388,36.3845631 80.733901,0.0633792383 C-30.3125859,-36.2578047 -17.5546074,42.5230384 -17.5546074,130.871715 C-17.5546074,219.220391 87.9981378,256.524785 139.889263,193.69825 Z" id="14" stroke="#001F3F" stroke-width="2" mask="url(#mask-2)"></path>
        <path d="M136.592137,188.478799 C185.099058,129.749646 136.592137,188.478799 185.099058,129.749646 C233.60598,71.0204938 185.099058,41.4247003 81.2947336,7.47228929 C-22.5095912,-26.4801218 -10.5836547,47.1628403 -10.5836547,129.749646 C-10.5836547,212.336452 88.0852158,247.207951 136.592137,188.478799 Z" id="13" stroke="#001F3F" stroke-width="2" mask="url(#mask-2)"></path>
        <path d="M133.295011,182.259348 C178.417729,127.627578 133.295011,182.259348 178.417729,127.627578 C223.540446,72.9958081 178.417729,45.4648375 81.8555661,13.8811993 C-14.7065965,-17.7024388 -3.61270205,50.8026421 -3.61270205,127.627578 C-3.61270205,204.452514 88.1722938,236.891118 133.295011,182.259348 Z" id="12" stroke="#001F3F" stroke-width="2" mask="url(#mask-2)"></path>
        <path d="M129.997885,178.039897 C171.736399,127.50551 129.997885,178.039897 171.736399,127.50551 C213.474913,76.9711225 171.736399,51.5049747 82.4163987,22.2901094 C-6.90360173,-6.92475593 3.3582506,56.4424439 3.3582506,127.50551 C3.3582506,198.568575 88.2593717,228.574284 129.997885,178.039897 Z" id="11" stroke="#001F3F" stroke-width="2" mask="url(#mask-2)"></path>
        <path d="M126.70076,171.820446 C165.055069,125.383441 126.70076,171.820446 165.055069,125.383441 C203.409379,78.9464369 165.055069,55.5451119 82.9772312,28.6990194 C0.899393003,1.85292699 10.3292033,60.0822458 10.3292033,125.383441 C10.3292033,190.684637 88.3464497,218.25745 126.70076,171.820446 Z" id="10" stroke="#001F3F" stroke-width="2" mask="url(#mask-2)"></path>
        <path d="M123.403634,166.600995 C158.37374,124.261373 123.403634,166.600995 158.37374,124.261373 C193.343846,81.9217513 158.37374,60.5852491 83.5380638,36.1079295 C8.70238774,11.6306099 17.3001559,64.7220476 17.3001559,124.261373 C17.3001559,183.800698 88.4335277,208.940616 123.403634,166.600995 Z" id="9" stroke="#001F3F" stroke-width="2" mask="url(#mask-2)"></path>
        <path d="M120.106508,160.381543 C151.69241,122.139305 120.106508,160.381543 151.69241,122.139305 C183.278312,83.8970657 151.69241,64.6253863 84.0988963,42.5168395 C16.5053825,20.4082928 24.2711086,68.3618495 24.2711086,122.139305 C24.2711086,175.91676 88.5206056,198.623782 120.106508,160.381543 Z" id="8" stroke="#001F3F" stroke-width="2" mask="url(#mask-2)"></path>
        <path d="M116.809382,155.162092 C145.01108,121.017236 116.809382,155.162092 145.01108,121.017236 C173.212779,86.8723801 145.01108,69.6655234 84.6597288,49.9257496 C24.3083772,30.1859757 31.2420612,73.0016513 31.2420612,121.017236 C31.2420612,169.032821 88.6076836,189.306949 116.809382,155.162092 Z" id="7" stroke="#001F3F" stroke-width="2" mask="url(#mask-2)"></path>
        <path d="M113.512256,148.942641 C138.329751,118.895168 113.512256,148.942641 138.329751,118.895168 C163.147245,88.8476945 138.329751,73.7056606 85.2205614,56.3346596 C32.1113719,38.9636586 38.2130139,76.6414532 38.2130139,118.895168 C38.2130139,161.148883 88.6947616,178.990115 113.512256,148.942641 Z" id="6" stroke="#001F3F" stroke-width="2" mask="url(#mask-2)"></path>
        <path d="M110.21513,143.72319 C131.648421,117.7731 110.21513,143.72319 131.648421,117.7731 C153.081712,91.8230089 131.648421,78.7457978 85.7813939,63.7435697 C39.9143667,48.7413416 45.1839665,81.281255 45.1839665,117.7731 C45.1839665,154.264944 88.7818395,169.673281 110.21513,143.72319 Z" id="5" stroke="#001F3F" stroke-width="2" mask="url(#mask-2)"></path>
        <path d="M106.918004,137.503739 C124.967091,115.651031 106.918004,137.503739 124.967091,115.651031 C143.016178,93.7983233 124.967091,82.785935 86.3422265,70.1524797 C47.7173614,57.5190245 52.1549192,84.9210568 52.1549192,115.651031 C52.1549192,146.381006 88.8689175,159.356447 106.918004,137.503739 Z" id="4" stroke="#001F3F" stroke-width="2" mask="url(#mask-2)"></path>
        <path d="M103.620879,132.284288 C118.285762,114.528963 103.620879,132.284288 118.285762,114.528963 C132.950645,96.7736376 118.285762,87.8260722 86.903059,77.5613898 C55.5203561,67.2967074 59.1258718,89.5608587 59.1258718,114.528963 C59.1258718,139.497067 88.9559955,150.039613 103.620879,132.284288 Z" id="3" stroke="#001F3F" stroke-width="2" mask="url(#mask-2)"></path>
        <path d="M101.323753,127.064837 C112.604432,113.406894 101.323753,127.064837 112.604432,113.406894 C123.885112,99.748952 112.604432,92.8662094 88.4638915,84.9702998 C64.3233509,77.0743903 67.0968245,94.2006605 67.0968245,113.406894 C67.0968245,132.613128 90.0430734,140.722779 101.323753,127.064837 Z" id="2" stroke="#001F3F" stroke-width="2" mask="url(#mask-2)"></path>
        <path d="M97.96875,121.050781 C105.753906,111.625 97.96875,121.050781 105.753906,111.625 C113.539063,102.199219 105.753906,97.4492188 89.09375,92 C72.4335938,86.5507813 74.3476563,98.370166 74.3476563,111.625 C74.3476563,124.879834 90.1835938,130.476562 97.96875,121.050781 Z" id="1" stroke="#001F3F" stroke-width="2" mask="url(#mask-2)"></path>
        <path d="M95.7295011,115.625935 C100.241773,110.162758 95.7295011,115.625935 100.241773,110.162758 C104.754045,104.699581 100.241773,101.946484 90.5855566,98.7881199 C80.9293404,95.6297561 82.0387298,102.480264 82.0387298,110.162758 C82.0387298,117.845251 91.2172294,121.089112 95.7295011,115.625935 Z" id="0" stroke="#001F3F" stroke-width="2" mask="url(#mask-2)"></path>
        <path d="M92.4323753,109.406484 C93.5604432,108.040689 92.4323753,109.406484 93.5604432,108.040689 C94.6885112,106.674895 93.5604432,105.986621 91.1463892,105.19703 C88.7323351,104.407439 89.0096824,106.120066 89.0096824,108.040689 C89.0096824,109.961313 91.3043073,110.772278 92.4323753,109.406484 Z" id="-1" stroke="#001F3F" stroke-width="2" mask="url(#mask-2)"></path>
        <mask id="mask-4" fill="white">
            <use xlink:href="#path-3"></use>
        </mask>
        <rect stroke="#000000" stroke-width="4" x="2" y="2" width="196" height="196" rx="98"></rect>
    </g>
</svg>